HIERARCHY
ROOT Hips
{
	OFFSET 0.00000 0.00000 0.00000
	CHANNELS 6 Xposition Yposition Zposition Zrotation Yrotation Xrotation 
	JOINT LHipJoint
	{
		OFFSET 0 0 0
		CHANNELS 3 Zrotation Yrotation Xrotation
		JOINT LeftHip
		{
			OFFSET 1.53139 -1.83434 0.76626
			CHANNELS 3 Zrotation Yrotation Xrotation
			JOINT LeftKnee
			{
				OFFSET 2.56112 -7.03663 0.00000
				CHANNELS 3 Zrotation Yrotation Xrotation
				JOINT LeftAnkle
				{
					OFFSET 2.59983 -7.14299 0.00000
					CHANNELS 3 Zrotation Yrotation Xrotation
					JOINT LeftToe
					{
						OFFSET 0.13742 -0.37757 2.00054
						CHANNELS 3 Zrotation Yrotation Xrotation
						End Site
						{
							OFFSET 0.00000 -0.00000 1.02897
						}
					}
				}
			}
		}
	}
	JOINT RHipJoint
	{
		OFFSET 0 0 0
		CHANNELS 3 Zrotation Yrotation Xrotation
		JOINT RightHip
		{
			OFFSET -1.40122 -1.83435 0.76627
			CHANNELS 3 Zrotation Yrotation Xrotation
			JOINT RightKnee
			{
				OFFSET -2.54052 -6.98003 0.00000
				CHANNELS 3 Zrotation Yrotation Xrotation
				JOINT RightAnkle
				{
					OFFSET -2.63179 -7.23079 0.00000
					CHANNELS 3 Zrotation Yrotation Xrotation
					JOINT RightToe
					{
						OFFSET -0.24131 -0.66299 2.03908
						CHANNELS 3 Zrotation Yrotation Xrotation
						End Site
						{
							OFFSET -0.00000 -0.00000 1.07391
						}
					}
				}
			}
		}
	}
	JOINT lowerback
	{
		OFFSET 0 0 0
		CHANNELS 3 Zrotation Yrotation Xrotation
		JOINT Chest
		{
			OFFSET 0.01174 2.10302 -0.29778
			CHANNELS 3 Zrotation Yrotation Xrotation
			JOINT Chest2
			{
				OFFSET 0.00772 2.13227 -0.01247
				CHANNELS 3 Zrotation Yrotation Xrotation
				JOINT lowerneck
				{
					OFFSET 0 0 0
					CHANNELS 3 Zrotation Yrotation Xrotation
					JOINT Neck
					{
						OFFSET -0.09219 1.60848 0.31481
						CHANNELS 3 Zrotation Yrotation Xrotation
						JOINT Head
						{
							OFFSET 0.13974 1.65456 -0.31134
							CHANNELS 3 Zrotation Yrotation Xrotation
							End Site
							{
								OFFSET 0.04742 1.69515 -0.14578
							}
						}
					}
				}
				JOINT LeftCollar
				{
					OFFSET 0 0 0
					CHANNELS 3 Zrotation Yrotation Xrotation
					JOINT LeftShoulder
					{
						OFFSET 3.24909 1.02882 -0.23993
CHANNELS 3 Zrotation Xrotation Yrotation
						JOINT LeftElbow
						{
OFFSET 0 -5.329550 -0.000000
CHANNELS 3 Zrotation Xrotation Yrotation
							JOINT LeftWrist
							{
OFFSET 0 -3.692320 -0.000000
CHANNELS 3 Zrotation Xrotation Yrotation
								JOINT lhand
								{
									OFFSET 0 0 0
CHANNELS 3 Zrotation Xrotation Yrotation
									JOINT LFingers
									{
OFFSET 0 -0.536600 -0.000000
CHANNELS 3 Zrotation Xrotation Yrotation
										End Site
										{
OFFSET 0 -0.432620 -0.000000
										}
									}
								}
								JOINT LThumb
								{
OFFSET 0 0.000000 0.000000
CHANNELS 3 Zrotation Xrotation Yrotation
									End Site
									{
OFFSET 0 -0.439220 0.439220
									}
								}
							}
						}
					}
				}
				JOINT RightCollar
				{
					OFFSET 0 0 0
					CHANNELS 3 Zrotation Yrotation Xrotation
					JOINT RightShoulder
					{
						OFFSET -3.21387 0.93002 -0.34594
CHANNELS 3 Zrotation Xrotation Yrotation
						JOINT RightElbow
						{
OFFSET 0 -5.234310 0.000000
CHANNELS 3 Zrotation Xrotation Yrotation
							JOINT RightWrist
							{
OFFSET 0 -3.553010 -0.000000
CHANNELS 3 Zrotation Xrotation Yrotation
								JOINT rhand
								{
									OFFSET 0 0 0
CHANNELS 3 Zrotation Xrotation Yrotation
									JOINT RFingers
									{
OFFSET 0 -0.772520 -0.000000
CHANNELS 3 Zrotation Xrotation Yrotation
										End Site
										{
OFFSET 0 -0.622830 -0.000000
										}
									}
								}
								JOINT RThumb
								{
OFFSET 0 0.000000 0.000000
CHANNELS 3 Zrotation Xrotation Yrotation
									End Site
									{
OFFSET 0 -0.632340 0.632340
									}
								}
							}
						}
					}
				}
			}
		}
	}
}
MOTION
Frames: 12
Frame Time: 0.008333333333333333
-10.335122 17.834052 12.873615 -540.578185 -79.633256 -539.513576 0.000000 0.000000 0.000000 -18.547279 -3.121159 -2.883886 1.209862 6.977781 19.649549 0.330725 -7.999861 -10.907183 0.466964 -4.382114 -12.154412 0.000000 0.000000 0.000000 8.939232 4.492832 -14.579512 -3.242430 -11.077445 32.541675 -0.678347 5.631281 -14.675342 -0.052406 -1.477092 4.062624 -4.741920 0.015614 12.803658 0.178431 -0.711319 1.699187 2.992440 -0.288883 -5.333964 -12.271251 -4.831444 -11.503687 7.006071 -9.151428 38.845779 3.481475 -5.428680 16.968147 0.000000 0.000000 0.000000 4.963689 -3.321650 0.657304 15.897095 -25.380898 3.601739 22.050843 12.007385 -22.369632 0.000000 0.000000 0.000000 -7.125000 0.000000 0.000000 -7.228719 53.778341 1.566422 0.000000 0.000000 0.000000 -2.124871 8.169001 -4.130884 -18.542591 -28.846270 -4.808223 -17.822554 4.182696 -10.695548 0.000000 0.000000 0.000000 7.125000 0.000000 0.000000 6.524581 18.798814 4.100650
-10.425610 17.847443 12.524794 -542.917481 -80.165976 -537.711628 0.000000 0.000000 0.000000 -17.807220 -2.235820 -0.162518 0.827519 5.803252 16.214677 0.231190 -8.295974 -9.656759 0.488351 -4.480787 -12.433379 0.000000 0.000000 0.000000 5.129515 2.806949 -13.330620 -2.960966 -10.631558 31.047135 -0.259172 -1.592499 -10.317996 -0.329786 -3.690861 10.208541 -4.659677 0.146976 12.315235 0.287030 -0.489984 1.800362 3.016355 -0.191271 -4.975056 -12.003369 -4.749512 -11.116935 6.518099 -8.998191 39.040785 3.253733 -5.406515 16.900696 0.000000 0.000000 0.000000 4.369124 -3.132445 -1.131161 16.442235 -26.116595 3.838603 21.718846 11.291608 -22.401356 0.000000 0.000000 0.000000 -7.125000 0.000000 0.000000 -7.580054 53.747835 1.637591 0.000000 0.000000 0.000000 -2.271353 8.963936 -7.261182 -17.239451 -27.172309 -4.196152 -17.584692 4.847283 -10.139839 0.000000 0.000000 0.000000 7.125000 0.000000 0.000000 6.693220 19.392027 4.119159
-10.519550 17.842384 12.058934 -545.922891 -80.332819 -535.388881 0.000000 0.000000 0.000000 -16.877382 -1.976727 3.071325 0.518391 4.614659 12.812646 0.188344 -7.626420 -8.767449 0.570065 -4.835057 -13.438712 0.000000 0.000000 0.000000 2.049386 4.095376 -10.042947 -2.801351 -10.366380 30.171394 0.049648 -5.438995 -5.963689 -1.027651 -6.448481 18.091453 -4.512244 0.221817 11.830796 0.394116 -0.335892 1.752621 3.016137 -0.118723 -4.770163 -12.236763 -4.702188 -10.952048 6.592814 -8.870708 38.880101 3.354813 -5.375585 16.774704 0.000000 0.000000 0.000000 3.535709 -2.652757 -0.467382 16.656801 -26.403040 3.933447 22.247116 11.594738 -22.106117 0.000000 0.000000 0.000000 -7.125000 0.000000 0.000000 -6.934934 53.541609 1.462165 0.000000 0.000000 0.000000 -2.260783 9.542308 -9.457196 -16.546297 -26.255828 -3.884476 -17.707776 5.095314 -10.286587 0.000000 0.000000 0.000000 7.125000 0.000000 0.000000 6.605541 19.231410 4.088326
-10.583764 17.749915 11.443561 -549.393930 -80.475561 -532.292057 0.000000 0.000000 0.000000 -15.513944 -2.682693 4.211669 0.536549 4.693292 13.035889 0.262225 -6.674632 -9.583165 1.128662 -6.747715 -18.970075 0.000000 0.000000 0.000000 0.580197 5.927945 -5.949002 -2.454963 -9.755416 28.188372 -0.031563 -1.916016 -4.610544 -0.009136 0.391274 -1.075573 -4.401890 0.104268 11.352574 0.398228 -0.446956 1.421023 2.971865 -0.161644 -4.844493 -12.034998 -4.538845 -10.948383 6.514124 -8.590895 38.676388 3.332494 -5.233348 16.602002 0.000000 0.000000 0.000000 3.666292 -1.686150 0.539476 16.421635 -26.088958 3.829496 22.363432 12.178616 -22.453440 0.000000 0.000000 0.000000 -7.125000 0.000000 0.000000 -6.937342 53.925308 1.527768 0.000000 0.000000 0.000000 -1.925798 9.927918 -10.150841 -16.651587 -26.396149 -3.931194 -17.139524 5.162779 -10.133000 0.000000 0.000000 0.000000 7.125000 0.000000 0.000000 7.009258 19.427531 4.310756
-10.570510 17.635753 10.652529 -550.903048 -80.837691 -530.914763 0.000000 0.000000 0.000000 -13.180835 -4.551354 4.448653 0.690197 5.310991 14.797826 0.330468 -5.168511 -10.309005 1.462885 -7.644026 -21.637891 0.000000 0.000000 0.000000 1.988086 6.005273 -3.084440 -2.040133 -8.949067 25.636177 -0.283653 2.652759 -9.488082 -0.679949 5.272005 -14.686041 -4.315890 -0.125669 11.103101 0.424417 -0.724412 1.195570 2.990802 -0.290532 -4.919870 -12.061735 -4.477622 -11.084684 6.568101 -8.392188 38.300204 3.389468 -5.123241 16.411224 0.000000 0.000000 0.000000 4.598034 -0.941942 0.918450 15.939064 -25.437962 3.619744 22.256921 12.259351 -21.991464 0.000000 0.000000 0.000000 -7.125000 0.000000 0.000000 -6.885311 53.424146 1.431554 0.000000 0.000000 0.000000 -1.214215 9.357908 -9.598607 -17.102639 -26.992981 -4.133850 -17.219972 4.801107 -10.442325 0.000000 0.000000 0.000000 7.125000 0.000000 0.000000 6.950764 19.102300 4.325173
-10.454973 17.615751 9.743833 -544.726140 -80.247497 -536.981457 0.000000 0.000000 0.000000 -9.419053 -6.336702 4.663392 0.815718 5.763275 16.099094 0.241520 -1.772948 -8.833738 2.351126 -9.561761 -27.569092 0.000000 0.000000 0.000000 6.616545 2.534964 -4.407704 -2.073427 -9.017454 25.849847 -0.631770 2.715444 -14.334117 -0.530092 4.662354 -12.948608 -3.348527 -0.051199 11.360648 0.582334 -0.508237 1.133490 2.581059 -0.195883 -5.152956 -12.505827 -4.551353 -11.461809 6.933070 -8.438130 38.228122 3.614928 -5.142801 16.526649 0.000000 0.000000 0.000000 5.730966 -0.214763 0.595922 16.092926 -25.646543 3.686102 22.722525 12.986165 -21.913880 0.000000 0.000000 0.000000 -7.125000 0.000000 0.000000 -6.382882 53.431087 1.327765 0.000000 0.000000 0.000000 -0.523453 8.187153 -6.666423 -17.513148 -27.529372 -4.321913 -18.350014 3.618686 -10.283135 0.000000 0.000000 0.000000 7.125000 0.000000 0.000000 6.150331 19.191898 3.808567
-10.270555 17.712737 8.835687 -534.392376 -78.381454 -547.102479 0.000000 0.000000 0.000000 -5.264782 -8.127846 5.084530 0.946644 6.196136 17.354703 -0.042809 4.899912 -5.269321 2.289881 -9.445326 -27.198640 0.000000 0.000000 0.000000 12.206833 3.882488 -4.332821 -2.020884 -8.909415 25.512499 -0.698995 3.300897 -15.019491 -0.459639 4.345208 -12.050570 -1.413678 0.212175 11.745256 1.248252 0.098547 1.477441 2.091945 0.056968 -5.044333 -12.917016 -4.624227 -11.846854 6.730512 -8.272588 38.219549 3.619454 -5.137517 16.611680 0.000000 0.000000 0.000000 5.573945 0.129287 0.491228 16.477041 -26.163149 3.853906 21.674940 11.956348 -21.553694 0.000000 0.000000 0.000000 -7.125000 0.000000 0.000000 -7.327753 52.860630 1.423242 0.000000 0.000000 0.000000 -0.857341 6.729389 -2.111669 -18.314880 -28.558462 -4.698831 -17.436194 3.416656 -10.058525 0.000000 0.000000 0.000000 7.125000 0.000000 0.000000 6.798943 19.485962 4.170940
-10.106872 17.850184 8.017313 -531.185454 -77.621754 -549.531870 0.000000 0.000000 0.000000 -4.090750 -8.177305 2.177804 1.443294 7.594286 21.488687 -0.615711 13.743380 -4.592767 0.506200 -4.548443 -12.627138 0.000000 0.000000 0.000000 15.846609 3.261388 -4.542452 -1.774968 -8.380681 23.876496 -0.633064 5.066051 -14.167840 -0.137710 2.392056 -6.590392 -0.705036 0.107075 11.367463 1.564878 0.061427 1.547212 2.026414 0.023036 -4.759003 -12.582044 -4.607230 -11.983692 6.618120 -8.345812 38.402490 3.495015 -5.143644 16.724126 0.000000 0.000000 0.000000 4.940608 0.897420 -0.823856 16.899097 -26.724545 4.041881 21.354771 11.697523 -20.593832 0.000000 0.000000 0.000000 -7.125000 0.000000 0.000000 -7.332148 51.805856 1.234416 0.000000 0.000000 0.000000 -2.468626 5.976717 3.517191 -19.360330 -29.863929 -5.209116 -17.259078 2.314572 -10.316960 0.000000 0.000000 0.000000 7.125000 0.000000 0.000000 6.923492 19.229559 4.288180
-9.973381 17.926453 7.413118 -534.089821 -77.492623 -546.649651 0.000000 0.000000 0.000000 -7.387982 -5.673723 -2.333463 2.424517 9.698937 28.007628 -0.165064 9.352137 -9.834640 0.440922 -4.259937 -11.809183 0.000000 0.000000 0.000000 17.482677 3.539703 -4.586314 -1.803256 -8.443502 24.069571 -0.649967 5.074695 -14.357872 -0.067287 1.672708 -4.602033 -0.532505 -0.096771 11.661411 1.313960 -0.207010 1.693180 1.708828 -0.117460 -4.759601 -12.432652 -4.906408 -11.670021 6.818180 -8.940098 37.950988 3.444495 -5.334513 16.494377 0.000000 0.000000 0.000000 4.173428 0.634549 -1.677464 16.553583 -26.265540 3.887745 21.551509 13.000905 -20.532181 0.000000 0.000000 0.000000 -7.125000 0.000000 0.000000 -7.116179 51.776286 1.192377 0.000000 0.000000 0.000000 -3.884676 5.304812 4.478894 -20.553804 -31.303701 -5.816379 -18.263807 1.122584 -10.232931 0.000000 0.000000 0.000000 7.125000 0.000000 0.000000 6.211172 19.250203 3.838773
-9.880410 17.910472 7.004644 -540.079871 -77.395232 -540.939681 0.000000 0.000000 0.000000 -14.149284 -4.003583 -5.746681 3.208785 11.025518 32.365911 0.573786 -4.522873 -13.501158 0.828488 -5.805438 -16.221412 0.000000 0.000000 0.000000 17.672649 4.435421 -5.499460 -2.190238 -9.251336 26.584927 -0.749363 4.972238 -15.432945 -0.006736 0.524107 -1.440231 -0.289464 -0.214877 11.905077 0.811143 -0.365338 1.884846 1.071298 -0.206589 -4.692986 -12.707335 -5.324657 -11.499347 6.895206 -9.495338 37.508904 3.418604 -5.574167 16.329672 0.000000 0.000000 0.000000 3.467921 0.218429 -3.669027 16.440515 -26.114259 3.837835 21.355901 13.216435 -19.933318 0.000000 0.000000 0.000000 -7.125000 0.000000 0.000000 -7.124246 51.118996 1.078614 0.000000 0.000000 0.000000 -4.743122 4.766028 1.847876 -21.250423 -32.119472 -6.182520 -19.433160 -1.756825 -9.131831 0.000000 0.000000 0.000000 7.125000 0.000000 0.000000 5.373536 20.326621 3.186200
-9.843499 17.825758 6.727491 -546.718920 -76.878347 -534.259244 0.000000 0.000000 0.000000 -22.342082 -6.966656 -5.614661 2.783831 10.336722 30.073978 0.381470 -16.345540 -15.034367 0.669684 -5.233209 -14.574848 0.000000 0.000000 0.000000 16.804329 4.525482 -7.904390 -2.888088 -10.511676 30.650076 -0.902429 6.250561 -16.942515 -0.006900 0.536212 -1.473534 -0.243079 -0.258454 11.528115 0.457480 -0.434939 1.978822 0.682562 -0.244869 -4.387768 -13.261928 -5.545211 -11.320849 6.902649 -9.623717 37.046533 3.491642 -5.682445 16.109964 0.000000 0.000000 0.000000 2.643759 0.027944 -6.613723 17.004910 -26.864153 4.089579 20.508694 11.999909 -19.360576 0.000000 0.000000 0.000000 -7.125000 0.000000 0.000000 -7.782504 50.382879 1.037671 0.000000 0.000000 0.000000 -6.319880 4.856957 1.129055 -21.319080 -32.198893 -6.219143 -20.572714 -3.814134 -8.544143 0.000000 0.000000 0.000000 7.125000 0.000000 0.000000 4.550119 20.875827 2.638178
-9.831951 17.726654 6.414635 -544.207237 -76.173850 -536.469259 0.000000 0.000000 0.000000 -24.726637 -5.429269 -6.814666 2.033143 8.934786 25.591524 -0.343930 -19.031945 -10.177266 0.019255 0.835749 2.297255 0.000000 0.000000 0.000000 18.125143 4.773198 -9.347108 -3.357610 -11.252616 33.136531 -0.981605 9.014637 -17.851340 -0.042223 -1.276737 3.511335 -1.014046 0.000919 11.107842 1.167783 -0.138236 1.710962 1.812646 -0.077235 -4.435645 -13.255447 -5.773771 -11.157616 6.978740 -10.199995 37.469882 3.421261 -5.952287 16.383116 0.000000 0.000000 0.000000 1.821138 0.548464 -8.300063 17.959128 -28.104789 4.529976 22.114948 12.363871 -19.687707 0.000000 0.000000 0.000000 -7.125000 0.000000 0.000000 -6.298894 50.991933 0.931074 0.000000 0.000000 0.000000 -7.398466 5.933078 0.810645 -21.292391 -32.168031 -6.204923 -20.046325 -2.751989 -8.565691 0.000000 0.000000 0.000000 7.125000 0.000000 0.000000 4.930087 20.885456 2.858875
